<svg xmlns="http://www.w3.org/2000/svg" width="155" height="50" fill="none" viewBox="0 0 324 100"><rect width="100" height="100" fill="url(#a)" rx="50"/><path fill="#fff" d="M85.117 49.862c.847 0 1.455.184 1.823.552.405.368.608.847.608 1.436 0 .958-.295 1.805-.884 2.541-.552.737-1.436 1.123-2.651 1.16-2.91.037-5.524-.184-7.844-.663-2.578 5.487-5.69 10.053-9.335 13.699C63.225 72.196 59.654 74 56.118 74c-3.24 0-5.67-1.712-7.29-5.137-1.62-3.461-2.542-8.083-2.762-13.864-2.21 6.407-4.714 11.176-7.513 14.306C35.792 72.435 32.846 74 29.716 74c-3.535 0-6.205-2.191-8.01-6.573C19.903 63.008 19 57.079 19 49.64c0-5.413.479-11.36 1.436-17.841.258-1.841.718-3.112 1.381-3.812.7-.736 1.786-1.104 3.259-1.104 1.105 0 1.952.24 2.54.718.627.479.94 1.362.94 2.651 0 .258-.037.755-.11 1.491-1.105 7.55-1.658 13.975-1.658 19.278 0 4.934.424 8.745 1.27 11.434.848 2.688 1.99 4.032 3.425 4.032 1.29 0 2.836-1.344 4.64-4.032 1.841-2.725 3.664-6.74 5.469-12.042 1.804-5.34 3.332-11.691 4.584-19.056.295-1.694.829-2.854 1.602-3.48.81-.663 1.896-.994 3.259-.994 1.141 0 1.97.258 2.485.773.553.479.829 1.215.829 2.21 0 .589-.037 1.049-.11 1.38a106.176 106.176 0 0 0-1.547 18.007c0 4.088.129 7.347.387 9.777.294 2.43.828 4.29 1.601 5.579.81 1.252 1.97 1.878 3.48 1.878 1.768 0 3.738-1.326 5.91-3.977 2.173-2.688 4.162-6.02 5.966-9.998-2.246-1.4-3.94-3.203-5.082-5.413-1.141-2.246-1.712-4.824-1.712-7.733s.442-5.358 1.326-7.346c.92-2.026 2.154-3.535 3.7-4.53C69.854 26.497 71.603 26 73.518 26c2.357 0 4.216.847 5.579 2.54 1.399 1.695 2.099 4.015 2.099 6.96 0 4.162-.903 8.783-2.707 13.865 1.878.331 4.087.497 6.628.497ZM68.823 38.98c0 3.61 1.16 6.279 3.48 8.01 1.436-4.125 2.154-7.53 2.154-10.219 0-1.547-.203-2.67-.608-3.37-.405-.736-.957-1.104-1.657-1.104-.994 0-1.804.59-2.43 1.767-.626 1.142-.94 2.78-.94 4.916Z"/><path fill="#000" d="m145.471 72-7.248-16.656L130.975 72h-7.248l-7.872-34.08h8.16l4.656 21.6 9.552-22.176 9.6 22.176 4.656-21.6h8.16L152.719 72h-7.248Zm36.811-3.072c-2.464 2.4-5.44 3.6-8.928 3.6-3.488 0-6.464-1.2-8.928-3.6-2.464-2.432-3.696-5.408-3.696-8.928 0-3.52 1.232-6.48 3.696-8.88 2.464-2.432 5.44-3.648 8.928-3.648 3.488 0 6.464 1.216 8.928 3.648 2.464 2.4 3.696 5.36 3.696 8.88 0 3.52-1.232 6.496-3.696 8.928Zm-12.768-4.752c1.024 1.056 2.304 1.584 3.84 1.584s2.8-.528 3.792-1.584c1.024-1.056 1.536-2.448 1.536-4.176 0-1.728-.512-3.12-1.536-4.176-.992-1.056-2.256-1.584-3.792-1.584s-2.816.528-3.84 1.584c-.992 1.056-1.488 2.448-1.488 4.176 0 1.728.496 3.12 1.488 4.176ZM190.437 72V48h7.248v3.6c.384-1.088 1.104-2 2.16-2.736a5.893 5.893 0 0 1 3.552-1.152c.832 0 1.616.096 2.352.288v7.344c-1.12-.384-2.192-.576-3.216-.576-1.536 0-2.736.544-3.6 1.632-.832 1.056-1.248 2.464-1.248 4.224V72h-7.248Zm28.212.528c-3.104 0-5.744-1.232-7.92-3.696-2.144-2.464-3.216-5.408-3.216-8.832 0-3.424 1.072-6.368 3.216-8.832 2.176-2.464 4.816-3.696 7.92-3.696 2.752 0 4.928.976 6.528 2.928V36h7.248v36h-7.248v-2.4c-1.6 1.952-3.776 2.928-6.528 2.928Zm-2.352-8.256c1.024 1.12 2.352 1.68 3.984 1.68 1.632 0 2.944-.56 3.936-1.68 1.024-1.12 1.536-2.544 1.536-4.272 0-1.728-.512-3.152-1.536-4.272-.992-1.12-2.304-1.68-3.936-1.68-1.632 0-2.96.56-3.984 1.68-.992 1.12-1.488 2.544-1.488 4.272 0 1.728.496 3.152 1.488 4.272Zm33.421 8.256c-3.584 0-6.608-1.184-9.072-3.552-2.464-2.368-3.696-5.36-3.696-8.976 0-3.616 1.232-6.608 3.696-8.976 2.464-2.368 5.488-3.552 9.072-3.552 2.464 0 4.736.64 6.816 1.92 2.08 1.28 3.632 2.976 4.656 5.088l-6.336 3.36c-1.056-2.4-2.768-3.6-5.136-3.6-1.536 0-2.832.544-3.888 1.632-1.056 1.088-1.584 2.464-1.584 4.128 0 1.664.528 3.04 1.584 4.128s2.352 1.632 3.888 1.632c2.368 0 4.08-1.2 5.136-3.6l6.336 3.36c-1.024 2.112-2.576 3.808-4.656 5.088-2.08 1.28-4.352 1.92-6.816 1.92Zm25.04 0c-3.104 0-5.744-1.232-7.92-3.696-2.144-2.464-3.216-5.408-3.216-8.832 0-3.424 1.072-6.368 3.216-8.832 2.176-2.464 4.816-3.696 7.92-3.696 2.752 0 4.928.976 6.528 2.928V48h7.248v24h-7.248v-2.4c-1.6 1.952-3.776 2.928-6.528 2.928Zm-2.352-8.256c1.024 1.12 2.352 1.68 3.984 1.68 1.632 0 2.944-.56 3.936-1.68 1.024-1.12 1.536-2.544 1.536-4.272 0-1.728-.512-3.152-1.536-4.272-.992-1.12-2.304-1.68-3.936-1.68-1.632 0-2.96.56-3.984 1.68-.992 1.12-1.488 2.544-1.488 4.272 0 1.728.496 3.152 1.488 4.272Zm35.869 8.256c-1.472 0-2.8-.288-3.984-.864-1.184-.608-2.032-1.296-2.544-2.064V72h-7.248V36h7.248v14.4c.512-.768 1.36-1.44 2.544-2.016 1.184-.608 2.512-.912 3.984-.912 3.104 0 5.728 1.232 7.872 3.696 2.176 2.464 3.264 5.408 3.264 8.832 0 3.424-1.088 6.368-3.264 8.832-2.144 2.464-4.768 3.696-7.872 3.696Zm-5.616-8.256c1.024 1.12 2.352 1.68 3.984 1.68 1.632 0 2.944-.56 3.936-1.68 1.024-1.12 1.536-2.544 1.536-4.272 0-1.728-.512-3.152-1.536-4.272-.992-1.12-2.304-1.68-3.936-1.68-1.632 0-2.96.56-3.984 1.68-.992 1.12-1.488 2.544-1.488 4.272 0 1.728.496 3.152 1.488 4.272Z"/><defs><linearGradient id="a" x1="3" x2="98" y1="50" y2="50" gradientUnits="userSpaceOnUse"><stop stop-color="#353CE7"/><stop offset="1" stop-color="#131ACD"/></linearGradient></defs></svg>